<mxfile host="app.diagrams.net" modified="2023-11-05T10:38:09.125Z" agent="Mozilla/5.0 (Windows NT 10.0; Win64; x64) AppleWebKit/537.36 (KHTML, like Gecko) Chrome/119.0.0.0 Safari/537.36" etag="JHv2Df62lHHs4fSuJ5gu" version="22.0.8" type="device">
  <diagram name="Seite-1" id="cjrV59oI_f_YvcppSa7R">
    <mxGraphModel dx="1050" dy="549" grid="1" gridSize="10" guides="1" tooltips="1" connect="1" arrows="1" fold="1" page="1" pageScale="1" pageWidth="827" pageHeight="1169" math="0" shadow="0">
      <root>
        <mxCell id="0" />
        <mxCell id="1" parent="0" />
        <mxCell id="QrqNuIiHY1A30iDhFvHS-20" style="edgeStyle=orthogonalEdgeStyle;rounded=0;orthogonalLoop=1;jettySize=auto;html=1;entryX=0.5;entryY=0;entryDx=0;entryDy=0;" edge="1" parent="1" source="QrqNuIiHY1A30iDhFvHS-1" target="QrqNuIiHY1A30iDhFvHS-2">
          <mxGeometry relative="1" as="geometry" />
        </mxCell>
        <mxCell id="QrqNuIiHY1A30iDhFvHS-43" style="edgeStyle=orthogonalEdgeStyle;rounded=0;orthogonalLoop=1;jettySize=auto;html=1;exitX=0;exitY=0.5;exitDx=0;exitDy=0;entryX=0;entryY=0.5;entryDx=0;entryDy=0;startArrow=classic;startFill=1;fillColor=#f8cecc;strokeColor=#b85450;strokeWidth=4;" edge="1" parent="1" source="QrqNuIiHY1A30iDhFvHS-1" target="QrqNuIiHY1A30iDhFvHS-7">
          <mxGeometry relative="1" as="geometry" />
        </mxCell>
        <mxCell id="QrqNuIiHY1A30iDhFvHS-1" value="Applikation Service" style="rounded=0;whiteSpace=wrap;html=1;" vertex="1" parent="1">
          <mxGeometry x="80" y="40" width="120" height="60" as="geometry" />
        </mxCell>
        <mxCell id="QrqNuIiHY1A30iDhFvHS-25" style="edgeStyle=orthogonalEdgeStyle;rounded=0;orthogonalLoop=1;jettySize=auto;html=1;entryX=0.5;entryY=1;entryDx=0;entryDy=0;exitX=0.5;exitY=1;exitDx=0;exitDy=0;" edge="1" parent="1" source="QrqNuIiHY1A30iDhFvHS-2" target="QrqNuIiHY1A30iDhFvHS-4">
          <mxGeometry relative="1" as="geometry">
            <mxPoint x="200" y="320" as="sourcePoint" />
            <mxPoint x="484" y="340" as="targetPoint" />
          </mxGeometry>
        </mxCell>
        <mxCell id="QrqNuIiHY1A30iDhFvHS-41" style="edgeStyle=orthogonalEdgeStyle;rounded=0;orthogonalLoop=1;jettySize=auto;html=1;entryX=0.5;entryY=0;entryDx=0;entryDy=0;startArrow=classic;startFill=1;" edge="1" parent="1" source="QrqNuIiHY1A30iDhFvHS-2" target="QrqNuIiHY1A30iDhFvHS-7">
          <mxGeometry relative="1" as="geometry" />
        </mxCell>
        <mxCell id="QrqNuIiHY1A30iDhFvHS-2" value="Decision-Service" style="rounded=0;whiteSpace=wrap;html=1;" vertex="1" parent="1">
          <mxGeometry x="70" y="190" width="120" height="60" as="geometry" />
        </mxCell>
        <mxCell id="QrqNuIiHY1A30iDhFvHS-35" style="edgeStyle=orthogonalEdgeStyle;rounded=0;orthogonalLoop=1;jettySize=auto;html=1;entryX=1;entryY=0.5;entryDx=0;entryDy=0;exitX=0.5;exitY=1;exitDx=0;exitDy=0;startArrow=classic;startFill=1;" edge="1" parent="1" source="QrqNuIiHY1A30iDhFvHS-3" target="QrqNuIiHY1A30iDhFvHS-7">
          <mxGeometry relative="1" as="geometry" />
        </mxCell>
        <mxCell id="QrqNuIiHY1A30iDhFvHS-37" style="edgeStyle=orthogonalEdgeStyle;rounded=0;orthogonalLoop=1;jettySize=auto;html=1;entryX=0.75;entryY=1;entryDx=0;entryDy=0;exitX=0.25;exitY=0;exitDx=0;exitDy=0;" edge="1" parent="1" source="QrqNuIiHY1A30iDhFvHS-3" target="QrqNuIiHY1A30iDhFvHS-1">
          <mxGeometry relative="1" as="geometry">
            <mxPoint x="240" y="140" as="sourcePoint" />
            <Array as="points">
              <mxPoint x="240" y="190" />
              <mxPoint x="240" y="120" />
              <mxPoint x="170" y="120" />
            </Array>
          </mxGeometry>
        </mxCell>
        <mxCell id="QrqNuIiHY1A30iDhFvHS-3" value="Result-Service" style="rounded=0;whiteSpace=wrap;html=1;" vertex="1" parent="1">
          <mxGeometry x="220" y="190" width="120" height="60" as="geometry" />
        </mxCell>
        <mxCell id="QrqNuIiHY1A30iDhFvHS-31" value="" style="edgeStyle=orthogonalEdgeStyle;rounded=0;orthogonalLoop=1;jettySize=auto;html=1;" edge="1" parent="1" source="QrqNuIiHY1A30iDhFvHS-4" target="QrqNuIiHY1A30iDhFvHS-5">
          <mxGeometry relative="1" as="geometry" />
        </mxCell>
        <mxCell id="QrqNuIiHY1A30iDhFvHS-4" value="Create-Circut-Service" style="rounded=0;whiteSpace=wrap;html=1;" vertex="1" parent="1">
          <mxGeometry x="414" y="190" width="120" height="60" as="geometry" />
        </mxCell>
        <mxCell id="QrqNuIiHY1A30iDhFvHS-5" value="Service um die Daten via simulator oder echten Quantencomputer" style="rounded=0;whiteSpace=wrap;html=1;" vertex="1" parent="1">
          <mxGeometry x="600" y="190" width="120" height="60" as="geometry" />
        </mxCell>
        <mxCell id="QrqNuIiHY1A30iDhFvHS-39" style="edgeStyle=orthogonalEdgeStyle;rounded=0;orthogonalLoop=1;jettySize=auto;html=1;entryX=0.5;entryY=0;entryDx=0;entryDy=0;exitX=0.5;exitY=0;exitDx=0;exitDy=0;" edge="1" parent="1" source="QrqNuIiHY1A30iDhFvHS-5" target="QrqNuIiHY1A30iDhFvHS-3">
          <mxGeometry relative="1" as="geometry" />
        </mxCell>
        <mxCell id="QrqNuIiHY1A30iDhFvHS-6" value="Vendor-Api" style="rounded=0;whiteSpace=wrap;html=1;direction=south;" vertex="1" parent="1">
          <mxGeometry x="800" y="70" width="120" height="360" as="geometry" />
        </mxCell>
        <mxCell id="QrqNuIiHY1A30iDhFvHS-7" value="Data Service" style="rounded=0;whiteSpace=wrap;html=1;" vertex="1" parent="1">
          <mxGeometry x="70" y="340" width="120" height="60" as="geometry" />
        </mxCell>
        <mxCell id="QrqNuIiHY1A30iDhFvHS-19" value="" style="swimlane;startSize=0;" vertex="1" parent="1">
          <mxGeometry x="60" y="160" width="300" height="120" as="geometry">
            <mxRectangle x="60" y="160" width="50" height="40" as="alternateBounds" />
          </mxGeometry>
        </mxCell>
        <mxCell id="QrqNuIiHY1A30iDhFvHS-21" value="Kann eine Benutzereingabe sein&lt;br&gt;oder ein einfacher Funktionsaufruf" style="text;html=1;strokeColor=none;fillColor=none;align=left;verticalAlign=middle;whiteSpace=wrap;rounded=0;" vertex="1" parent="1">
          <mxGeometry x="220" y="10" width="110" height="80" as="geometry" />
        </mxCell>
        <mxCell id="QrqNuIiHY1A30iDhFvHS-26" style="edgeStyle=orthogonalEdgeStyle;rounded=0;orthogonalLoop=1;jettySize=auto;html=1;entryX=0.99;entryY=0.397;entryDx=0;entryDy=0;entryPerimeter=0;" edge="1" parent="1" source="QrqNuIiHY1A30iDhFvHS-4" target="QrqNuIiHY1A30iDhFvHS-3">
          <mxGeometry relative="1" as="geometry" />
        </mxCell>
        <mxCell id="QrqNuIiHY1A30iDhFvHS-28" style="edgeStyle=orthogonalEdgeStyle;rounded=0;orthogonalLoop=1;jettySize=auto;html=1;entryX=0.417;entryY=1.017;entryDx=0;entryDy=0;entryPerimeter=0;" edge="1" parent="1" source="QrqNuIiHY1A30iDhFvHS-5" target="QrqNuIiHY1A30iDhFvHS-6">
          <mxGeometry relative="1" as="geometry" />
        </mxCell>
        <mxCell id="QrqNuIiHY1A30iDhFvHS-32" style="edgeStyle=orthogonalEdgeStyle;rounded=0;orthogonalLoop=1;jettySize=auto;html=1;entryX=0.5;entryY=1;entryDx=0;entryDy=0;exitX=0.611;exitY=1.03;exitDx=0;exitDy=0;exitPerimeter=0;" edge="1" parent="1" source="QrqNuIiHY1A30iDhFvHS-6" target="QrqNuIiHY1A30iDhFvHS-5">
          <mxGeometry relative="1" as="geometry">
            <mxPoint x="786.44" y="290" as="sourcePoint" />
            <mxPoint x="630" y="293.78" as="targetPoint" />
          </mxGeometry>
        </mxCell>
      </root>
    </mxGraphModel>
  </diagram>
</mxfile>
